<?xml version="1.0" encoding="UTF-8"?>
<svg version="1.1" xmlns="http://www.w3.org/2000/svg" width="128" height="128">
<path d="M0 0 C1.98359222 2.01495336 3.79169773 4.08308157 5.5546875 6.29296875 C6.90738653 8.11770847 6.90738653 8.11770847 9 9 C9.165 8.29875 9.33 7.5975 9.5 6.875 C12.35299692 1.40675591 17.67029577 -1.715121 23.3125 -3.9375 C29.99173989 -5.87217638 36.91618947 -5.20500045 43.25 -2.375 C50.05877779 1.53167578 54.73986712 6.69103173 57.3359375 14.140625 C60.09359387 26.01476888 57.52846575 36.61990615 51.23828125 46.87109375 C43.59899353 57.79543015 34.50653913 66.8654551 24 75 C22.86213848 75.91394366 21.72546326 76.82936578 20.58984375 77.74609375 C19.43553311 78.66486372 18.28059603 79.58284726 17.125 80.5 C16.32195435 81.15077515 16.32195435 81.15077515 15.50268555 81.81469727 C12.34898358 84.27823338 9.99712618 85.66011867 6 86 C3.98632812 85.01879883 3.98632812 85.01879883 2.03125 83.45703125 C0.93671509 82.59718628 0.93671509 82.59718628 -0.17993164 81.7199707 C-0.9455542 81.09050537 -1.71117676 80.46104004 -2.5 79.8125 C-3.69387329 78.85380005 -3.69387329 78.85380005 -4.91186523 77.87573242 C-20.98205895 64.84021179 -36.96843537 50.99141444 -42 30 C-42.77601439 21.57212277 -43.14977979 13.09309292 -38 6 C-28.3839063 -5.10453183 -12.56360567 -9.38294601 0 0 Z " fill="#B7B6B6" transform="translate(56,23)"/>
<path d="M0 0 C3.0625 2.25 3.0625 2.25 5 4 C4.67 4.66 4.34 5.32 4 6 C3.46890625 5.65066406 2.9378125 5.30132812 2.390625 4.94140625 C1.68421875 4.48636719 0.9778125 4.03132813 0.25 3.5625 C-0.44609375 3.11003906 -1.1421875 2.65757813 -1.859375 2.19140625 C-7.15672116 -0.75693422 -13.26072568 -0.68990301 -19.1171875 0.390625 C-25.04924065 2.19101467 -28.52462902 5.99392545 -32 11 C-35.07685366 17.01993108 -34.87408139 24.28907962 -33.34765625 30.76953125 C-26.59166312 51.03751065 -9.80186498 64.08595029 7 76 C17.60895961 71.17092169 26.71887714 62.04039255 35 54 C35.680625 53.34515625 36.36125 52.6903125 37.0625 52.015625 C44.79328107 43.93971978 50.36709235 32.69688173 50.21875 21.44140625 C49.66501422 15.26131939 47.6096811 9.25509024 43 5 C36.6650241 0.80380495 30.6020284 -1.49451642 23 0 C17.82319271 1.96181602 13.35931642 4.60610297 9 8 C10.76937373 3.22269094 14.49689277 0.30327071 18.890625 -1.984375 C25.08155226 -4.56799031 30.68175181 -4.96400469 37.0625 -2.8125 C45.10370223 0.60895271 49.49899633 4.91297087 53 13 C56.17996393 23.16778274 53.26058314 32.43954959 48.703125 41.609375 C41.5792171 54.02113207 30.05508028 63.7090424 18.875 72.375 C18.1648877 72.92849121 17.45477539 73.48198242 16.72314453 74.05224609 C9.88441229 79.18497201 9.88441229 79.18497201 6 79 C3.16015625 77.33203125 3.16015625 77.33203125 0.0625 74.8125 C-0.49598633 74.36124756 -1.05447266 73.90999512 -1.62988281 73.44506836 C-2.81986675 72.47684213 -4.00347607 71.50073753 -5.18115234 70.51757812 C-6.98847009 69.00962013 -8.8150027 67.52775847 -10.64453125 66.046875 C-22.69565364 56.16189961 -35.79084154 43.26980228 -38 27 C-38.65668303 19.29204842 -38.46649588 12.53664145 -34 6 C-24.54992026 -4.72542236 -12.43817421 -7.12127576 0 0 Z " fill="#A7A3A3" transform="translate(56,26)"/>
<path d="M0 0 C2.33333333 0 4.66666667 0 7 0 C7.969375 -0.020625 8.93875 -0.04125 9.9375 -0.0625 C13 0 13 0 16 1 C17.155 0.814375 18.31 0.62875 19.5 0.4375 C23 0 23 0 26 2 C26.29296875 5.2578125 26.29296875 5.2578125 26.1875 9.125 C26.16042969 10.40632813 26.13335937 11.68765625 26.10546875 13.0078125 C26.07066406 13.99523438 26.03585938 14.98265625 26 16 C24.35 16 22.7 16 21 16 C20.67 12.37 20.34 8.74 20 5 C19.01 5 18.02 5 17 5 C16.67 8.63 16.34 12.26 16 16 C14.02 16 12.04 16 10 16 C9.67 12.37 9.34 8.74 9 5 C8.01 5 7.02 5 6 5 C5.67 8.63 5.34 12.26 5 16 C3.35 16 1.7 16 0 16 C0 10.72 0 5.44 0 0 Z " fill="#B1AEAE" transform="translate(72,46)"/>
</svg>
